Coordinates
version=1
nRows=6
nColumns=63
inDegrees=yes

Units are S.I. units (second, meters, Newtons, ...)
If the header above contains a line with 'inDegrees', this indicates whether rotational values are in degrees (yes) or radians (no).

endheader
time	pelvis_tilt	pelvis_list	pelvis_rotation	pelvis_tx	pelvis_ty	pelvis_tz	hip_flexion_r	hip_adduction_r	hip_rotation_r	knee_angle_r	knee_angle_r_beta	ankle_angle_r	subtalar_angle_r	mtp_angle_r	hip_flexion_l	hip_adduction_l	hip_rotation_l	knee_angle_l	knee_angle_l_beta	ankle_angle_l	subtalar_angle_l	mtp_angle_l	L5_S1_Flex_Ext	L5_S1_Lat_Bending	L5_S1_axial_rotation	L4_L5_Flex_Ext	L4_L5_Lat_Bending	L4_L5_axial_rotation	L3_L4_Flex_Ext	L3_L4_Lat_Bending	L3_L4_axial_rotation	L2_L3_Flex_Ext	L2_L3_Lat_Bending	L2_L3_axial_rotation	L1_L2_Flex_Ext	L1_L2_Lat_Bending	L1_L2_axial_rotation	L1_T12_Flex_Ext	L1_T12_Lat_Bending	L1_T12_axial_rotation	Abs_r3	Abs_r2	Abs_r1	Abs_t1	Abs_t2	neck_flexion	neck_bending	neck_rotation	arm_flex_r	arm_add_r	arm_rot_r	elbow_flex_r	pro_sup_r	wrist_flex_r	wrist_dev_r	arm_flex_l	arm_add_l	arm_rot_l	elbow_flex_l	pro_sup_l	wrist_flex_l	wrist_dev_l
      0.03333333	     -4.42691293	     14.81227976	    -76.53537074	      0.28168434	      0.86776567	     -1.20869608	     33.42507116	    -17.45326687	    -18.20486731	     33.64484280	      0.58721328	     21.96141698	      2.00690555	      0.00000000	     21.71344689	    -10.30891126	     15.08134856	     23.34939987	      0.40752391	     22.27765567	    -16.24325666	      0.00000000	      0.00586245	      0.57230360	     -0.06570530	      0.01088716	      0.76116379	     -0.06981188	      0.00963142	      1.39149898	     -0.06981188	      0.00670020	      1.39149898	     -0.05749214	      0.00544387	      1.16704151	     -0.05338556	      0.00334981	      0.88649828	     -0.04927898	      0.04187491	      6.47401283	     -0.36543319	      0.00000000	      0.00000000	      0.00000000	      0.00000000	      0.00000001	      0.39123732	    -11.84957822	     -2.59903659	     36.63882799	     59.56308450	      0.00000000	      4.46776318	      2.32146921	    -13.63127527	     24.15724682	     38.03391953	     62.34175505	      0.00000000	      4.46776318
      0.06666667	     -4.21123317	     15.13832592	    -76.76943389	      0.28261443	      0.86877937	     -1.20701113	     33.58752517	    -17.53516437	    -17.60370739	     33.31183094	      0.58140113	     21.43882300	      0.80539720	      0.00000000	     21.91979329	     -9.94071027	     15.03598461	     23.66092280	      0.41296101	     22.25704520	    -16.67195443	      0.00000000	      0.00731315	      0.54133280	     -0.07240675	      0.01358126	      0.71997262	     -0.07693218	      0.01201478	      1.31619657	     -0.07693218	      0.00835820	      1.31619657	     -0.06335591	      0.00679099	      1.10388585	     -0.05883049	      0.00417874	      0.83852451	     -0.05430507	      0.05223713	      6.12366490	     -0.40270465	      0.00000000	      0.00000000	      0.00000000	      0.00000000	      0.00000001	      0.03248623	    -11.33090942	     -5.40428076	     36.09799696	     59.21604303	      0.00000000	      4.50022990	     -0.61770017	    -11.04736706	     12.65968560	     40.51310578	     60.91663749	      0.00000000	      4.50022990
      0.10000000	     -3.99478166	     15.45365115	    -77.13844568	      0.28319283	      0.86970025	     -1.20564675	     33.82868225	    -17.54079085	    -16.87276914	     33.02063895	      0.57631887	     20.98838217	     -0.18797272	      0.00000000	     22.05740449	     -9.67508367	     14.66601306	     23.85300037	      0.41631339	     22.11972717	    -16.94031585	      0.00000000	      0.00838820	      0.50645635	     -0.04762474	      0.01557773	      0.67358695	     -0.05060129	      0.01378097	      1.23139797	     -0.05060129	      0.00958687	      1.23139797	     -0.04167165	      0.00778928	      1.03276579	     -0.03869510	      0.00479302	      0.78450089	     -0.03571856	      0.05991608	      5.72913552	     -0.26487453	      0.00000000	      0.00000000	      0.00000000	      0.00000000	      0.00000001	     -0.26826262	    -11.06668420	     -7.35221343	     35.52088157	     59.14196899	      0.00000000	      4.52961072	     -2.65756118	     -8.83682242	      4.31541067	     42.96603961	     60.05848831	      0.00000000	      4.52961072
      0.13333333	     -3.76728381	     15.74593781	    -77.54909689	      0.28343078	      0.87050639	     -1.20492389	     34.19121774	    -17.54815252	    -16.08200026	     32.90885321	      0.57436784	     20.61271843	     -0.97040654	      0.00000000	     22.11018650	     -9.45080716	     14.27711802	     23.84341763	      0.41614614	     21.81909502	    -17.14085792	      0.00000000	      0.00972872	      0.47016756	     -0.00257442	      0.01806721	      0.62532285	     -0.00273532	      0.01598331	      1.14316540	     -0.00273532	      0.01111895	      1.14316540	     -0.00225262	      0.00903409	      0.95876568	     -0.00209171	      0.00555899	      0.72828954	     -0.00193081	      0.06949127	      5.31862943	     -0.01431814	      0.00000000	      0.00000000	      0.00000000	      0.00000000	      0.00000001	     -0.50649996	    -10.91241978	     -8.93315497	     34.93360595	     59.16750723	      0.00000000	      4.55190852	     -3.74671742	     -7.50492974	     -0.29940111	     44.77546914	     59.67854671	      0.00000000	      4.55190852
      0.16666667	     -3.66892219	     15.95867946	    -77.81845204	      0.28348191	      0.87132828	     -1.20489617	     34.44236168	    -17.50038840	    -15.55729761	     32.75069124	      0.57160739	     20.22507670	     -1.34746993	      0.00000000	     22.18109325	     -9.37832841	     13.84506291	     23.74539906	      0.41443540	     21.34856988	    -17.20735072	      0.00000000	      0.00959728	      0.45089497	      0.04481092	      0.01782311	      0.59969032	      0.04761160	      0.01576737	      1.09630604	      0.04761160	      0.01096873	      1.09630604	      0.03920955	      0.00891203	      0.91946503	      0.03640887	      0.00548389	      0.69843631	      0.03360819	      0.06855241	      5.10061412	      0.24922487	      0.00000000	      0.00000000	      0.00000000	      0.00000000	      0.00000001	     -0.65121812	    -10.99564910	     -9.77024415	     34.32914186	     59.21238169	      0.00000000	      4.56303853	     -4.07100356	     -7.03982829	     -1.79147496	     45.66434107	     59.59087109	      0.00000000	      4.56303853
      0.20000000	     -3.59998068	     16.11167500	    -78.05631872	      0.28321041	      0.87199026	     -1.20536736	     34.81412745	    -17.29465557	    -14.44152735	     32.80575806	      0.57256849	     19.70105395	     -2.35515892	      0.00000000	     22.17629283	     -9.36071185	     13.60397243	     23.51465976	      0.41040824	     20.92912165	    -17.10010557	      0.00000000	      0.00857663	      0.43738408	      0.09361815	      0.01592766	      0.58172083	      0.09946928	      0.01409055	      1.06345566	      0.09946928	      0.00980223	      1.06345566	      0.08191588	      0.00796426	      0.89191363	      0.07606474	      0.00490069	      0.67750795	      0.07021361	      0.06126202	      4.94777625	      0.52067605	      0.00000000	      0.00000000	      0.00000000	      0.00000000	      0.00000001	     -0.76856234	    -10.91451594	    -11.10053892	     33.94193501	     59.48380721	      0.00000000	      4.59228562	     -4.04494464	     -6.62150092	     -3.16015832	     45.77148638	     59.68295045	      0.00000000	      4.59228562
